<svg width="40" height="40" viewBox="0 0 40 40" fill="none" xmlns="http://www.w3.org/2000/svg">
<g clip-path="url(#clip0_2_243)">
<path d="M20.0008 -0.0429688C8.94953 -0.0429688 -0.0429688 8.94703 -0.0429688 19.9995C-0.0429688 31.052 8.94953 40.042 20.0008 40.042C31.052 40.042 40.0445 31.052 40.0445 19.9995C40.0445 8.94703 31.052 -0.0429688 20.0008 -0.0429688ZM20.0008 38.707C9.68578 38.707 1.29453 30.3145 1.29453 19.9995C1.29453 9.68453 9.68578 1.29203 20.0008 1.29203C30.3158 1.29203 38.707 9.68453 38.707 19.9995C38.707 30.3145 30.3158 38.707 20.0008 38.707Z" fill="white"/>
<path d="M30.9938 13.807C31.1325 13.5504 31.2467 13.2813 31.3351 13.0033C31.376 12.8743 31.3768 12.736 31.3375 12.6066C31.2981 12.4771 31.2204 12.3627 31.1147 12.2783C31.0089 12.194 30.88 12.1437 30.7451 12.1341C30.6102 12.1244 30.4755 12.156 30.3588 12.2245C29.7183 12.605 29.025 12.8885 28.3013 13.0658C27.4229 12.273 26.2821 11.8335 25.0988 11.832C24.456 11.8325 23.8198 11.9628 23.2286 12.2151C22.6373 12.4674 22.103 12.8365 21.6578 13.3002C21.2127 13.764 20.8657 14.3128 20.6377 14.9139C20.4098 15.515 20.3056 16.1559 20.3313 16.7983C17.5201 16.4444 14.953 15.0218 13.1626 12.8258C13.094 12.7426 13.0063 12.6772 12.907 12.6351C12.8077 12.593 12.6998 12.5756 12.5923 12.5841C12.4848 12.5927 12.381 12.6271 12.2896 12.6844C12.1983 12.7417 12.1221 12.8202 12.0676 12.9133C11.6576 13.6169 11.4348 14.4139 11.4203 15.2282C11.4059 16.0424 11.6003 16.8468 11.9851 17.5645C11.8907 17.5805 11.8001 17.6135 11.7176 17.662C11.6165 17.7265 11.5333 17.8153 11.4756 17.9204C11.418 18.0255 11.3877 18.1434 11.3876 18.2633C11.3876 19.682 12.0188 20.9845 13.0363 21.8695L12.9926 21.9133C12.9158 22.0002 12.8629 22.1056 12.8392 22.2191C12.8156 22.3327 12.8219 22.4504 12.8576 22.5608C13.0698 23.2227 13.424 23.8302 13.8956 24.3409C14.3672 24.8515 14.9446 25.2529 15.5876 25.517C14.2671 26.1612 12.7893 26.4124 11.3301 26.2408C11.1801 26.2255 11.0293 26.2604 10.9012 26.34C10.7732 26.4196 10.6752 26.5395 10.6226 26.6808C10.5721 26.8231 10.5711 26.9784 10.6199 27.1213C10.6687 27.2643 10.7643 27.3865 10.8913 27.4683C12.8751 28.7415 15.1829 29.4179 17.5401 29.417C25.2651 29.417 29.8826 23.142 29.8826 17.0758L29.8813 16.8708C30.63 16.2863 31.2803 15.5858 31.8076 14.7958C31.8874 14.6764 31.9267 14.5344 31.9196 14.3909C31.9124 14.2474 31.8593 14.11 31.768 13.9991C31.6767 13.8882 31.5521 13.8096 31.4127 13.775C31.2733 13.7404 31.1264 13.7516 30.9938 13.807ZM28.8126 16.0008C28.7219 16.066 28.649 16.1529 28.6005 16.2536C28.552 16.3542 28.5295 16.4654 28.5351 16.577C28.5426 16.742 28.5463 16.9095 28.5463 17.0745C28.5463 22.4845 24.4301 28.0808 17.5413 28.0808C16.3127 28.0813 15.0928 27.8751 13.9326 27.4708C15.3221 27.2045 16.6274 26.6086 17.7388 25.7333C17.847 25.648 17.9262 25.5313 17.9656 25.3993C18.005 25.2673 18.0026 25.1263 17.9589 24.9957C17.9151 24.865 17.832 24.7511 17.7211 24.6694C17.6101 24.5878 17.4766 24.5424 17.3388 24.5395C16.7999 24.5292 16.2709 24.3924 15.7945 24.1401C15.3181 23.8878 14.9077 23.5271 14.5963 23.087C14.9126 23.0658 15.2226 23.0133 15.5238 22.932C15.6696 22.893 15.7979 22.8057 15.8877 22.6844C15.9775 22.5631 16.0236 22.415 16.0184 22.2641C16.0131 22.1133 15.957 21.9687 15.859 21.8539C15.761 21.7391 15.627 21.6609 15.4788 21.632C14.8701 21.5082 14.3065 21.2212 13.8483 20.8018C13.3901 20.3823 13.0546 19.8462 12.8776 19.2508C13.2101 19.3345 13.5513 19.3833 13.8926 19.3945C14.1863 19.3933 14.4588 19.2133 14.5501 18.9308C14.6413 18.6483 14.5338 18.337 14.2851 18.172C13.6969 17.7802 13.2441 17.2163 12.9883 16.5574C12.7326 15.8986 12.6865 15.1768 12.8563 14.4908C15.0276 16.7187 17.9595 18.0453 21.0663 18.2058C21.2863 18.207 21.4788 18.1283 21.6126 17.967C21.7463 17.8058 21.7976 17.592 21.7501 17.387C21.5791 16.6508 21.6556 15.8787 21.9677 15.1903C22.2797 14.5019 22.81 13.9355 23.4764 13.5788C24.1427 13.2222 24.9081 13.0951 25.654 13.2172C26.3999 13.3393 27.0848 13.7039 27.6026 14.2545C27.6802 14.3373 27.7776 14.399 27.8856 14.4338C27.9937 14.4686 28.1088 14.4753 28.2201 14.4533C28.4263 14.412 28.6301 14.3645 28.8313 14.3095C28.7406 14.3774 28.6463 14.4405 28.5488 14.4983C28.4192 14.5777 28.3205 14.6989 28.269 14.8419C28.2175 14.9849 28.2162 15.1412 28.2654 15.285C28.3146 15.4288 28.4113 15.5516 28.5397 15.6331C28.668 15.7146 28.8202 15.7499 28.9713 15.7333L29.1988 15.7045C29.0736 15.8077 28.9447 15.9065 28.8126 16.0008Z" fill="white"/>
</g>
<defs>
<clipPath id="clip0_2_243">
<rect width="40" height="40" fill="white"/>
</clipPath>
</defs>
</svg>
