<svg width="132" height="58" viewBox="0 0 132 58" fill="none" xmlns="http://www.w3.org/2000/svg">
<path d="M36.2184 46H35.9796C33.751 46 32 44.2478 32 42.0177V4.9823C32 2.75221 33.751 1 35.9796 1H36.2184C38.4469 1 40.198 2.75221 40.198 4.9823V42.0177C40.198 44.1681 38.4469 46 36.2184 46Z" fill="#34C759"/>
<path d="M5.21837 46H4.97959C2.75102 46 1 44.2478 1 42.0177V4.9823C1 2.75221 2.75102 1 4.97959 1H5.21837C7.44694 1 9.19796 2.75221 9.19796 4.9823V42.0177C9.19796 44.1681 7.44694 46 5.21837 46Z" fill="#34C759"/>
<path d="M22.9419 29.2187L22.7487 29.359C20.9458 30.669 18.7687 30.6516 17.8009 29.3195L1.72824 7.19733C0.760428 5.86524 1.4166 3.78938 3.21956 2.47946L3.41273 2.33911C5.21568 1.02919 7.39271 1.0466 8.36053 2.37869L24.4332 24.5008C25.3665 25.7853 24.7448 27.9088 22.9419 29.2187Z" fill="#34C759"/>
<path d="M18.4129 29.3591L18.2197 29.2187C16.4167 27.9088 15.7606 25.833 16.7284 24.5009L32.8011 2.37872C33.7689 1.04664 35.9459 1.02922 37.7489 2.33914L37.942 2.47949C39.745 3.78941 40.4012 5.86528 39.4333 7.19736L23.3607 29.3195C22.4274 30.604 20.2158 30.669 18.4129 29.3591Z" fill="#34C759"/>
<path d="M77.9311 43.7209L77.6871 43.8499C75.4105 45.054 72.5462 44.4245 71.1773 42.4192L48.4444 9.11756C47.0755 7.1123 47.7888 4.59069 50.0654 3.38663L50.3093 3.25763C52.5859 2.05356 55.4503 2.68308 56.8191 4.68834L79.5521 37.99C80.872 39.9236 80.2077 42.5168 77.9311 43.7209Z" fill="#34C759"/>
<path d="M97.2184 46H96.9796C94.751 46 93 44.2478 93 42.0177V4.9823C93 2.75221 94.751 1 96.9796 1H97.2184C99.4469 1 101.198 2.75221 101.198 4.9823V42.0177C101.198 44.1681 99.4469 46 97.2184 46Z" fill="#34C759"/>
<path d="M130.305 5.23786V5.5C130.305 7.9466 128.864 9.86893 127.03 9.86893L96.579 9.86893C94.7454 9.86893 93.3047 7.9466 93.3047 5.5V5.23786C93.3047 2.79126 94.7454 0.868932 96.579 0.868932L127.03 0.868932C128.798 0.868932 130.305 2.79126 130.305 5.23786Z" fill="#34C759"/>
<path d="M127.218 46H126.98C124.751 46 123 44.2478 123 42.0177V4.9823C123 2.75221 124.751 1 126.98 1H127.218C129.447 1 131.198 2.75221 131.198 4.9823V42.0177C131.198 44.1681 129.447 46 127.218 46Z" fill="#34C759"/>
<path d="M50.3128 43.7424L50.0689 43.6134C47.7923 42.4093 47.079 39.8877 48.4479 37.8825L71.1808 4.58082C72.5497 2.57556 75.414 1.94605 77.6906 3.15011L77.9346 3.27912C80.2112 4.48318 80.9244 7.00479 79.5556 9.01005L56.8226 42.3117C55.5027 44.2453 52.5895 44.9465 50.3128 43.7424Z" fill="#34C759"/>
<path d="M131 54.3981V54.6019C131 56.5049 125.938 58 119.496 58L12.5044 58C6.06195 58 1 56.5049 1 54.6019V54.3981C1 52.4951 6.06195 51 12.5044 51L119.496 51C125.708 51 131 52.4951 131 54.3981Z" fill="#34C759"/>
</svg>
