<svg width="40" height="40" viewBox="0 0 40 40" fill="none" xmlns="http://www.w3.org/2000/svg">
<path d="M20 0C8.97287 0 0 8.97094 0 20C0 31.0291 8.97287 40 20 40C31.0271 40 40 31.0291 40 20C40 8.97094 31.0271 0 20 0ZM20 38.6678C9.70752 38.6678 1.33458 30.2931 1.33458 20C1.33458 9.70687 9.70752 1.33217 20 1.33217C30.2925 1.33217 38.6654 9.70687 38.6654 20C38.6654 30.2931 30.2925 38.6678 20 38.6678Z" fill="white"/>
<path d="M24.3665 8.77445H21.0387C16.8005 8.73204 16.2592 11.3552 16.2592 14.1942V16.2586H14.3883C14.3037 16.2473 14.2177 16.2556 14.1369 16.283C14.0561 16.3103 13.9827 16.3559 13.9223 16.4162C13.862 16.4766 13.8164 16.55 13.7891 16.6308C13.7617 16.7116 13.7534 16.7977 13.7647 16.8822V20.6243C13.7534 20.7088 13.7617 20.7949 13.7891 20.8757C13.8164 20.9565 13.862 21.0299 13.9223 21.0903C13.9827 21.1506 14.0561 21.1962 14.1369 21.2235C14.2177 21.2509 14.3037 21.2592 14.3883 21.2479H16.2592V30.6031C16.2488 30.6878 16.2579 30.7738 16.2858 30.8544C16.3137 30.9351 16.3597 31.0083 16.4202 31.0685C16.4808 31.1286 16.5543 31.1742 16.6351 31.2016C16.7159 31.229 16.8019 31.2376 16.8866 31.2267H20.697C21.0649 31.2692 21.363 30.971 21.2458 30.6031L21.2483 21.2479H24.3665C24.451 21.2592 24.537 21.2509 24.6179 21.2235C24.6987 21.1962 24.7721 21.1506 24.8324 21.0903C24.8927 21.0299 24.9383 20.9565 24.9657 20.8757C24.993 20.7949 25.0014 20.7088 24.9901 20.6243V16.8822C25.0014 16.7977 24.993 16.7116 24.9657 16.6308C24.9383 16.55 24.8927 16.4766 24.8324 16.4162C24.7721 16.3559 24.6987 16.3103 24.6179 16.283C24.537 16.2556 24.451 16.2473 24.3665 16.2586H21.2445L21.2483 14.3875C21.3693 13.5905 21.3693 13.7202 22.1089 13.7639H24.3403C24.5136 13.7252 24.6982 13.7464 24.828 13.6204C24.9577 13.4944 25.0325 13.3223 24.9888 13.1402V9.39813C25.0004 9.31363 24.9922 9.22761 24.965 9.14678C24.9378 9.06596 24.8923 8.9925 24.8321 8.93213C24.7719 8.87177 24.6985 8.82614 24.6177 8.79879C24.537 8.77144 24.451 8.76311 24.3665 8.77445ZM23.6992 12.4467L22.1351 12.3868C20.1981 12.3868 20.0359 13.4383 20.0359 14.5148L20.0309 16.8797C20.0308 16.9673 20.0479 17.0541 20.0813 17.135C20.1147 17.216 20.1637 17.2895 20.2256 17.3515C20.2874 17.4135 20.3609 17.4627 20.4418 17.4962C20.5227 17.5298 20.6094 17.5471 20.697 17.5471H23.7428V19.9569H20.6995C20.5227 19.9569 20.3532 20.0271 20.2281 20.152C20.103 20.2768 20.0325 20.4463 20.0322 20.623L20.0309 29.9794H17.5065V20.6243C17.5065 20.2563 17.2558 19.9582 16.8866 19.9582H15.0119V17.5483H16.8866C16.9741 17.5484 17.0608 17.5313 17.1417 17.4979C17.2226 17.4645 17.2961 17.4155 17.358 17.3537C17.4828 17.2277 17.5052 17.0581 17.5052 16.881V14.1929C17.5052 11.3964 18.0702 10.0642 21.0375 10.0642H23.6979V12.4467H23.6992Z" fill="white"/>
</svg>
