<svg width="22" height="22" viewBox="0 0 22 22" fill="none" xmlns="http://www.w3.org/2000/svg">
<path d="M21.9666 20.8177L15.8306 14.6817C17.3051 12.9115 18.0404 10.641 17.8835 8.34248C17.7266 6.04397 16.6896 3.89443 14.9882 2.34104C13.2868 0.787638 11.052 -0.0500219 8.74877 0.00231252C6.44551 0.054647 4.25109 0.992947 2.62202 2.62202C0.992947 4.25109 0.054647 6.44551 0.00231252 8.74877C-0.0500219 11.052 0.787638 13.2868 2.34104 14.9882C3.89443 16.6896 6.04397 17.7266 8.34248 17.8835C10.641 18.0404 12.9115 17.3051 14.6817 15.8306L20.8177 21.9666L21.9666 20.8177ZM1.65405 8.96655C1.65405 7.52028 2.08293 6.10648 2.88643 4.90395C3.68994 3.70141 4.832 2.76415 6.16818 2.21069C7.50437 1.65722 8.97467 1.51241 10.3932 1.79456C11.8116 2.07672 13.1146 2.77317 14.1373 3.79584C15.1599 4.81851 15.8564 6.12147 16.1385 7.53996C16.4207 8.95844 16.2759 10.4287 15.7224 11.7649C15.169 13.1011 14.2317 14.2432 13.0292 15.0467C11.8266 15.8502 10.4128 16.2791 8.96655 16.2791C7.02782 16.2769 5.16911 15.5058 3.79821 14.1349C2.42732 12.764 1.65621 10.9053 1.65405 8.96655Z" fill="#1C1C1C"/>
</svg>
